<svg version="1.1" id="Layer_1" xmlns="http://www.w3.org/2000/svg" xmlns:xlink="http://www.w3.org/1999/xlink" x="0px" y="0px"
	 width="100%" viewBox="0 0 256 240" enable-background="new 0 0 256 240" xml:space="preserve">
<path fill="#000000" opacity="1.000000" stroke="none" 
	d="
M257.000000,131.000000 
	C257.000000,167.593613 257.000000,204.187225 257.000000,241.000000 
	C220.646072,241.000000 184.291687,241.000000 147.496277,240.659668 
	C148.354156,238.815659 149.564850,237.223892 150.965103,235.821396 
	C174.745102,212.002960 198.562744,188.222122 222.334213,164.395218 
	C226.737915,159.981216 226.736435,159.001755 222.397034,154.581635 
	C215.415405,147.470108 208.387741,140.401627 201.270706,133.425980 
	C196.967392,129.208130 195.801529,129.255936 191.398209,133.648361 
	C173.260300,151.741302 155.184692,169.896698 137.053696,187.996597 
	C125.170410,199.859497 113.212471,211.647598 101.328354,223.509674 
	C97.493607,227.337296 97.613388,229.231140 101.277733,233.151962 
	C103.627167,235.665817 106.857391,237.448532 108.000000,241.000000 
	C72.406387,241.000000 36.812775,241.000000 1.000000,241.000000 
	C1.000000,205.646072 1.000000,170.291702 1.326640,134.559464 
	C9.027386,141.398712 16.408630,148.608521 23.773085,155.835449 
	C28.666029,160.637024 29.048712,160.683990 33.748989,155.991653 
	C62.600624,127.188889 91.437706,98.371529 120.279358,69.558754 
	C132.285110,57.565018 144.312302,45.592606 156.284119,33.565075 
	C160.723724,29.104813 160.671265,27.843105 156.216049,23.316370 
	C152.944443,19.992231 149.507629,16.822906 146.356720,13.389771 
	C142.568832,9.262612 137.657776,6.158689 135.000000,1.000000 
	C175.593933,1.000000 216.187866,1.000000 257.000000,1.000000 
	C257.000000,41.687302 257.000000,82.374992 256.745667,123.318024 
	C248.696030,115.820137 240.891266,108.076370 233.111481,100.307571 
	C230.938446,98.137604 228.782974,96.445724 225.912628,99.299561 
	C218.368347,106.800415 210.905899,114.387901 203.206207,121.726158 
	C199.715073,125.053413 199.985077,127.850449 203.180008,131.005676 
	C208.731735,136.488495 214.167389,142.089264 219.740387,147.550064 
	C231.314957,158.891632 228.966232,157.292740 239.220367,147.596939 
	C245.111359,142.026703 250.283829,135.686203 257.000000,131.000000 
M82.775337,176.274536 
	C77.703697,181.334183 72.645500,186.407410 67.554794,191.447815 
	C64.991951,193.985306 64.568474,196.525192 67.290352,199.229370 
	C75.090904,206.979279 82.887825,214.732880 90.668785,222.502457 
	C93.305878,225.135727 96.013229,225.053329 98.544006,222.541687 
	C108.910782,212.253204 119.219955,201.906586 129.534210,191.565277 
	C146.523163,174.531799 163.482330,157.468567 180.486832,140.450638 
	C194.073044,126.853737 207.764801,113.361763 221.289948,99.704613 
	C225.865723,95.084175 225.754898,93.091721 221.195129,88.429024 
	C214.555786,81.639801 207.832687,74.931305 201.077164,68.257332 
	C197.099243,64.327454 194.807632,64.362389 190.940811,68.211502 
	C177.042831,82.045883 163.141830,95.877296 149.270950,109.738815 
	C127.258270,131.736603 105.268906,153.757706 82.775337,176.274536 
M156.308411,37.793022 
	C142.276047,51.634274 128.186768,65.418427 114.226158,79.331680 
	C97.932983,95.569595 81.758560,111.926620 65.520256,128.219635 
	C55.708714,138.064240 45.794434,147.808075 36.087051,157.754074 
	C32.036907,161.903748 32.211792,164.220612 36.261097,168.313385 
	C42.935951,175.059875 49.652363,181.766281 56.421543,188.418060 
	C60.916183,192.834732 62.775566,192.799332 67.253403,188.345474 
	C76.329094,179.318390 85.366165,170.252457 94.417496,161.200882 
	C126.063805,129.553665 157.708221,97.904587 189.356781,66.259628 
	C193.285706,62.331146 193.416916,60.734547 189.495682,56.702427 
	C182.995636,50.018600 176.367905,43.458683 169.775406,36.865139 
	C163.625824,30.714579 162.455597,30.764151 156.308411,37.793022 
z"/>
<path fill="#000000" opacity="1.000000" stroke="none" 
	d="
M125.531342,1.000000 
	C125.342850,3.403838 123.357948,4.784020 121.733879,6.408167 
	C85.339737,42.803997 48.959900,79.214333 12.460200,115.504097 
	C8.945989,118.998093 5.939415,123.083397 1.312050,125.873505 
	C1.000000,84.406364 1.000000,42.812733 1.000000,1.000000 
	C42.353970,1.000000 83.708328,1.000000 125.531342,1.000000 
z"/>
</svg>